<svg data-v-423bf9ae="" xmlns="http://www.w3.org/2000/svg" viewBox="0 0 107.90473245584674 60" class="font"><!----><!----><!----><g data-v-423bf9ae="" id="0ebe2954-8390-4a6b-b094-3b9d72bbecc3" fill="white" transform="matrix(5.571030403879727,0,0,5.571030403879727,-1.5102959070295867,-19.498606413579047)"><path d="M3.99 6.40C3.99 4.84 5.03 3.78 6.52 3.78C7.48 3.78 8.06 3.95 8.68 4.14C9.38 4.37 10.25 4.61 11.55 4.63L9.17 8.97C7.18 12.68 5.67 13.99 3.40 13.99C2.55 13.99 1.74 13.65 1.20 13.05C0.70 12.47 0.48 11.70 0.56 10.82L0.29 10.78C0.20 11.76 0.43 12.60 1.01 13.24C1.60 13.87 2.49 14.27 3.40 14.27C5.81 14.27 7.36 12.91 9.39 9.11L10.81 6.54C10.81 6.54 10.98 7.01 12.75 11.70C13.38 13.17 14.24 14.04 15.89 14.04C17.86 14.04 18.05 12.59 18.05 12.59L17.74 12.59C17.74 12.59 17.47 13.61 16.48 13.61C15.75 13.61 15.39 13.12 14.90 12.15C14.77 11.90 14.57 11.45 14.29 10.77C16.91 6.71 17.78 3.98 19.64 3.98L19.64 3.70C17.53 3.70 16.90 6.17 14.17 10.44L11.93 4.35C10.30 4.35 9.52 4.12 8.76 3.89C8.13 3.70 7.52 3.50 6.52 3.50C4.89 3.50 3.72 4.69 3.72 6.40L3.99 6.40Z"></path></g><!----><!----></svg>