<svg width="140" height="14" viewBox="0 0 140 14" fill="none" xmlns="http://www.w3.org/2000/svg">
<path d="M0.418747 12.8281C0.366664 12.6823 0.351039 12.5365 0.371872 12.3906C0.403122 12.2344 0.449997 12.0781 0.512497 11.9219C0.574997 11.7656 0.642705 11.6146 0.715622 11.4688C0.798955 11.3229 0.866664 11.1823 0.918747 11.0469C0.97083 10.9427 1.05416 10.7604 1.16875 10.5C1.29375 10.2292 1.41875 9.94792 1.54375 9.65625C1.67916 9.35417 1.80416 9.06771 1.91875 8.79688C2.03333 8.52604 2.11666 8.33854 2.16875 8.23438C2.23125 8.10938 2.22083 8 2.1375 7.90625C2.06458 7.80208 1.98125 7.70312 1.8875 7.60938C1.80416 7.51562 1.73646 7.42188 1.68437 7.32812C1.64271 7.23438 1.68437 7.125 1.80937 7C1.88229 6.92708 1.97604 6.88021 2.09062 6.85938C2.20521 6.83854 2.325 6.82292 2.45 6.8125C2.575 6.79167 2.68958 6.76042 2.79375 6.71875C2.89791 6.67708 2.98125 6.59375 3.04375 6.46875L4.825 3.09375C4.75208 2.8125 4.72604 2.57812 4.74687 2.39062C4.77812 2.20312 4.84062 2.04167 4.93437 1.90625C5.03854 1.77083 5.16875 1.64583 5.325 1.53125C5.49166 1.41667 5.67916 1.28646 5.8875 1.14062C6.96041 0.973958 8.0125 0.833333 9.04375 0.71875C10.0854 0.604167 11.1531 0.572917 12.2469 0.625C12.3094 0.635417 12.3875 0.682292 12.4812 0.765625C12.575 0.838542 12.6531 0.927083 12.7156 1.03125C12.7781 1.125 12.8042 1.21875 12.7937 1.3125C12.7937 1.40625 12.726 1.46875 12.5906 1.5C12.5802 1.5 12.549 1.49479 12.4969 1.48438C12.4448 1.46354 12.3875 1.44271 12.325 1.42188C12.2625 1.40104 12.2052 1.38021 12.1531 1.35938C12.101 1.33854 12.0698 1.32812 12.0594 1.32812C11.226 1.32812 10.5021 1.33854 9.8875 1.35938C9.27291 1.38021 8.73646 1.42708 8.27812 1.5C7.83021 1.5625 7.43958 1.66146 7.10625 1.79688C6.78333 1.93229 6.49166 2.11979 6.23125 2.35938C5.98125 2.58854 5.74166 2.88021 5.5125 3.23438C5.29375 3.58854 5.06458 4.02083 4.825 4.53125C4.71041 4.75 4.60625 4.95833 4.5125 5.15625C4.42916 5.33333 4.36146 5.51042 4.30937 5.6875C4.25729 5.85417 4.25208 5.99479 4.29375 6.10938C4.87708 6.21354 5.46562 6.20312 6.05937 6.07812C6.66354 5.95312 7.26771 5.80208 7.87187 5.625C8.47604 5.44792 9.08021 5.29167 9.68437 5.15625C10.299 5.01042 10.9135 4.97396 11.5281 5.04688V5.40625C11.5281 5.42708 11.3354 5.47396 10.95 5.54688C10.5646 5.60938 10.0698 5.70312 9.46562 5.82812C8.87187 5.94271 8.21562 6.08854 7.49687 6.26562C6.78854 6.43229 6.10625 6.63021 5.45 6.85938C4.79375 7.08854 4.21562 7.34896 3.71562 7.64062C3.21562 7.93229 2.87708 8.25 2.7 8.59375C2.36666 9.27083 2.04896 9.96875 1.74687 10.6875C1.44479 11.3958 1.16875 12.1094 0.918747 12.8281C0.856247 12.9219 0.767705 12.9792 0.653122 13C0.548955 13.0208 0.47083 12.9635 0.418747 12.8281ZM16.3756 12.8281C16.3548 12.8177 16.3548 12.6979 16.3756 12.4688C16.4069 12.2292 16.4485 11.9323 16.5006 11.5781C16.5527 11.224 16.6204 10.8333 16.7037 10.4062C16.7871 9.97917 16.8756 9.57292 16.9694 9.1875C17.0631 8.79167 17.1621 8.44792 17.2662 8.15625C17.3808 7.85417 17.4902 7.64583 17.5944 7.53125C17.6673 7.45833 17.7402 7.45833 17.8131 7.53125C17.886 7.59375 17.959 7.67708 18.0319 7.78125C18.1048 7.875 18.1777 7.96354 18.2506 8.04688C18.3235 8.11979 18.4017 8.125 18.485 8.0625C18.7767 7.65625 19.0944 7.27083 19.4381 6.90625C19.7923 6.53125 20.1829 6.20833 20.61 5.9375C20.6517 5.90625 20.7662 5.85938 20.9537 5.79688C21.1412 5.72396 21.3548 5.65625 21.5944 5.59375C21.834 5.52083 22.0787 5.46354 22.3287 5.42188C22.5892 5.36979 22.8079 5.34896 22.985 5.35938C23.1725 5.35938 23.2975 5.40625 23.36 5.5C23.4329 5.58333 23.4017 5.72917 23.2662 5.9375C22.6412 5.94792 22.0579 6.13021 21.5162 6.48438C20.9746 6.83854 20.4746 7.27604 20.0162 7.79688C19.5579 8.31771 19.1412 8.88542 18.7662 9.5C18.3912 10.1042 18.0631 10.6667 17.7819 11.1875C17.511 11.7083 17.2819 12.1406 17.0944 12.4844C16.9173 12.8281 16.7871 13 16.7037 13C16.6933 13 16.6465 12.9792 16.5631 12.9375C16.4798 12.8854 16.4173 12.849 16.3756 12.8281ZM28.9106 12.8281C28.4731 12.651 28.1971 12.3854 28.0825 12.0312C27.9783 11.6771 27.9835 11.2865 28.0981 10.8594C28.2127 10.4219 28.4106 9.97396 28.6919 9.51562C28.9731 9.04688 29.2856 8.61979 29.6294 8.23438C29.9731 7.84896 30.3169 7.52604 30.6606 7.26562C31.0148 6.99479 31.3169 6.84375 31.5669 6.8125C32.2127 6.72917 32.7179 6.77604 33.0825 6.95312C33.4575 7.11979 33.7127 7.36458 33.8481 7.6875C33.9835 8.01042 34.02 8.39062 33.9575 8.82812C33.895 9.25521 33.7544 9.6875 33.5356 10.125C33.3273 10.5625 33.0512 10.9844 32.7075 11.3906C32.3742 11.7969 31.9992 12.1406 31.5825 12.4219C31.1762 12.6927 30.744 12.875 30.2856 12.9688C29.8273 13.0521 29.369 13.0052 28.9106 12.8281ZM28.7387 11.9375C28.8221 12.2708 28.9992 12.4583 29.27 12.5C29.5408 12.5312 29.8533 12.4635 30.2075 12.2969C30.5721 12.1198 30.9523 11.8698 31.3481 11.5469C31.744 11.2135 32.1033 10.8542 32.4262 10.4688C32.7596 10.0833 33.0304 9.69792 33.2387 9.3125C33.4575 8.91667 33.5617 8.57292 33.5512 8.28125C33.5512 7.98958 33.4106 7.77083 33.1294 7.625C32.8585 7.46875 32.4002 7.4375 31.7544 7.53125C31.6085 7.66667 31.421 7.83333 31.1919 8.03125C30.9627 8.21875 30.7231 8.42708 30.4731 8.65625C30.2335 8.88542 29.994 9.13542 29.7544 9.40625C29.5148 9.66667 29.3065 9.9375 29.1294 10.2188C28.9523 10.5 28.8221 10.7865 28.7387 11.0781C28.6658 11.3698 28.6658 11.6562 28.7387 11.9375ZM48.2737 12.6406C48.1592 12.5052 48.0915 12.3542 48.0706 12.1875C48.0602 12.0104 48.0706 11.8385 48.1019 11.6719C48.1435 11.4948 48.1956 11.3281 48.2581 11.1719C48.331 11.0052 48.3987 10.8542 48.4612 10.7188C48.5029 10.6146 48.5862 10.4271 48.7112 10.1562C48.8467 9.875 48.9873 9.58333 49.1331 9.28125C49.2894 8.97917 49.4352 8.69792 49.5706 8.4375C49.706 8.16667 49.7998 7.97917 49.8519 7.875V7.53125C49.7477 7.47917 49.5342 7.55208 49.2112 7.75C48.8883 7.9375 48.5133 8.20312 48.0862 8.54688C47.6592 8.88021 47.206 9.25521 46.7269 9.67188C46.2477 10.0885 45.7946 10.4896 45.3675 10.875C44.9508 11.25 44.5862 11.5885 44.2737 11.8906C43.9612 12.1823 43.7633 12.375 43.68 12.4688C43.4508 12.5417 43.2998 12.4948 43.2269 12.3281C43.1644 12.151 43.1487 11.9115 43.18 11.6094C43.2112 11.2969 43.2737 10.9531 43.3675 10.5781C43.4612 10.1927 43.555 9.83333 43.6487 9.5C43.7529 9.15625 43.8415 8.86458 43.9144 8.625C43.9977 8.38542 44.0342 8.25521 44.0237 8.23438C43.8154 8.16146 43.5967 8.1875 43.3675 8.3125C43.1383 8.4375 42.904 8.625 42.6644 8.875C42.4248 9.11458 42.1852 9.40104 41.9456 9.73438C41.706 10.0573 41.4665 10.3854 41.2269 10.7188C40.9873 11.0417 40.7581 11.3542 40.5394 11.6562C40.3206 11.9479 40.1123 12.1875 39.9144 12.375C39.7165 12.5625 39.529 12.6719 39.3519 12.7031C39.1852 12.7344 39.0394 12.6562 38.9144 12.4688C38.904 12.4583 38.8987 12.4323 38.8987 12.3906C38.8987 12.349 38.904 12.3177 38.9144 12.2969C38.9665 12.1927 39.0446 12.0312 39.1487 11.8125C39.2633 11.5833 39.3883 11.3281 39.5237 11.0469C39.6592 10.7656 39.805 10.474 39.9612 10.1719C40.1175 9.85938 40.2633 9.56771 40.3987 9.29688C40.5446 9.01562 40.6696 8.76562 40.7737 8.54688C40.8883 8.32812 40.9769 8.16667 41.0394 8.0625C41.0915 7.95833 41.1644 7.82812 41.2581 7.67188C41.3519 7.50521 41.4456 7.34896 41.5394 7.20312C41.6331 7.04688 41.7165 6.91667 41.7894 6.8125C41.8623 6.69792 41.8987 6.64062 41.8987 6.64062H42.2737C42.3467 6.88021 42.3362 7.10417 42.2425 7.3125C42.1487 7.52083 42.0342 7.72396 41.8987 7.92188C41.7737 8.11979 41.6644 8.31771 41.5706 8.51562C41.4873 8.70312 41.4873 8.90625 41.5706 9.125C42.4665 8.33333 43.154 7.75 43.6331 7.375C44.1227 7 44.4665 6.78646 44.6644 6.73438C44.8623 6.68229 44.956 6.76042 44.9456 6.96875C44.9352 7.17708 44.8883 7.45833 44.805 7.8125C44.7321 8.16667 44.654 8.57292 44.5706 9.03125C44.4977 9.47917 44.4925 9.91667 44.555 10.3438H44.7425C44.805 10.3021 44.9092 10.224 45.055 10.1094C45.2008 9.99479 45.3571 9.86979 45.5237 9.73438C45.7008 9.59896 45.8623 9.47396 46.0081 9.35938C46.1644 9.24479 46.2737 9.16667 46.3362 9.125C46.4508 9.03125 46.6175 8.90104 46.8362 8.73438C47.055 8.56771 47.2737 8.40104 47.4925 8.23438C47.7217 8.05729 47.9248 7.90625 48.1019 7.78125C48.2894 7.64583 48.4092 7.5625 48.4612 7.53125C48.5029 7.5 48.5915 7.4375 48.7269 7.34375C48.8727 7.23958 49.029 7.13021 49.1956 7.01562C49.3727 6.90104 49.5394 6.79688 49.6956 6.70312C49.8519 6.59896 49.9665 6.52083 50.0394 6.46875C50.1956 6.36458 50.3415 6.31771 50.4769 6.32812C50.6123 6.33854 50.7217 6.39062 50.805 6.48438C50.8987 6.56771 50.956 6.6875 50.9769 6.84375C50.9977 6.98958 50.9769 7.15625 50.9144 7.34375C50.6644 7.8125 50.4144 8.27083 50.1644 8.71875C49.9248 9.16667 49.7008 9.61979 49.4925 10.0781C49.2946 10.526 49.1279 10.9896 48.9925 11.4688C48.8675 11.9479 48.7998 12.4583 48.7894 13C48.7373 13.0312 48.68 13.0312 48.6175 13C48.5654 12.9688 48.5133 12.9271 48.4612 12.875C48.4092 12.8229 48.3623 12.7708 48.3206 12.7188C48.2894 12.6667 48.2737 12.6406 48.2737 12.6406ZM68.625 12.8281C68.4583 12.7135 68.3906 12.5417 68.4219 12.3125C68.4531 12.0833 68.526 11.849 68.6406 11.6094C68.7552 11.3385 68.9219 11.0417 69.1406 10.7188C69.474 10.0833 69.7708 9.51562 70.0312 9.01562C70.3021 8.50521 70.5521 8.02604 70.7812 7.57812C71.0104 7.13021 71.2292 6.69792 71.4375 6.28125C71.6458 5.86458 71.8542 5.42708 72.0625 4.96875C72.2812 4.51042 72.5052 4.02083 72.7344 3.5C72.9635 2.97917 73.2188 2.38542 73.5 1.71875C73.5208 1.67708 73.5521 1.61979 73.5938 1.54688C73.6458 1.46354 73.7031 1.40104 73.7656 1.35938C73.8385 1.30729 73.9115 1.29167 73.9844 1.3125C74.0573 1.32292 74.1302 1.39583 74.2031 1.53125C74.3073 1.73958 74.3125 2.02604 74.2188 2.39062C74.1354 2.75521 73.9844 3.17708 73.7656 3.65625C73.5469 4.125 73.2865 4.63542 72.9844 5.1875C72.6823 5.72917 72.3646 6.28125 72.0312 6.84375C71.6979 7.40625 71.3698 7.96354 71.0469 8.51562C70.724 9.06771 70.4375 9.58333 70.1875 10.0625C69.9479 10.5417 69.7604 10.9792 69.625 11.375C69.5 11.7604 69.4583 12.0677 69.5 12.2969C70.2396 12.3698 70.9844 12.3646 71.7344 12.2812C72.4844 12.1979 73.2344 12.099 73.9844 11.9844C74.7344 11.8594 75.4844 11.75 76.2344 11.6562C76.9948 11.5625 77.75 11.5417 78.5 11.5938C78.6354 11.5729 78.75 11.6198 78.8438 11.7344C78.9375 11.849 78.9427 11.974 78.8594 12.1094C78.8385 12.1094 78.7917 12.1094 78.7188 12.1094C78.6562 12.099 78.5885 12.0938 78.5156 12.0938C78.4427 12.0938 78.3698 12.099 78.2969 12.1094C78.2344 12.1094 78.1875 12.1094 78.1562 12.1094C77.5729 12.1615 76.8906 12.2552 76.1094 12.3906C75.3281 12.5156 74.5208 12.6354 73.6875 12.75C72.8542 12.8646 72.0208 12.9531 71.1875 13.0156C70.3646 13.0781 69.6198 13.0729 68.9531 13C68.9427 13 68.8906 12.9792 68.7969 12.9375C68.7135 12.8854 68.6562 12.849 68.625 12.8281ZM84.5194 12.8281C84.0819 12.651 83.8058 12.3854 83.6912 12.0312C83.5871 11.6771 83.5923 11.2865 83.7069 10.8594C83.8215 10.4219 84.0194 9.97396 84.3006 9.51562C84.5819 9.04688 84.8944 8.61979 85.2381 8.23438C85.5819 7.84896 85.9256 7.52604 86.2694 7.26562C86.6235 6.99479 86.9256 6.84375 87.1756 6.8125C87.8215 6.72917 88.3267 6.77604 88.6912 6.95312C89.0662 7.11979 89.3215 7.36458 89.4569 7.6875C89.5923 8.01042 89.6287 8.39062 89.5662 8.82812C89.5037 9.25521 89.3631 9.6875 89.1444 10.125C88.936 10.5625 88.66 10.9844 88.3162 11.3906C87.9829 11.7969 87.6079 12.1406 87.1912 12.4219C86.785 12.6927 86.3527 12.875 85.8944 12.9688C85.436 13.0521 84.9777 13.0052 84.5194 12.8281ZM84.3475 11.9375C84.4308 12.2708 84.6079 12.4583 84.8787 12.5C85.1496 12.5312 85.4621 12.4635 85.8162 12.2969C86.1808 12.1198 86.561 11.8698 86.9569 11.5469C87.3527 11.2135 87.7121 10.8542 88.035 10.4688C88.3683 10.0833 88.6392 9.69792 88.8475 9.3125C89.0662 8.91667 89.1704 8.57292 89.16 8.28125C89.16 7.98958 89.0194 7.77083 88.7381 7.625C88.4673 7.46875 88.009 7.4375 87.3631 7.53125C87.2173 7.66667 87.0298 7.83333 86.8006 8.03125C86.5715 8.21875 86.3319 8.42708 86.0819 8.65625C85.8423 8.88542 85.6027 9.13542 85.3631 9.40625C85.1235 9.66667 84.9152 9.9375 84.7381 10.2188C84.561 10.5 84.4308 10.7865 84.3475 11.0781C84.2746 11.3698 84.2746 11.6562 84.3475 11.9375ZM100.257 12.8281C100.226 12.4844 100.252 12.1458 100.336 11.8125C100.429 11.4688 100.549 11.1354 100.695 10.8125C100.851 10.4792 101.013 10.151 101.179 9.82812C101.356 9.49479 101.507 9.17188 101.632 8.85938C101.757 8.53646 101.846 8.22396 101.898 7.92188C101.95 7.60938 101.929 7.30208 101.836 7C101.575 6.90625 101.273 6.92708 100.929 7.0625C100.596 7.19792 100.242 7.40625 99.8669 7.6875C99.4919 7.95833 99.1012 8.28125 98.695 8.65625C98.2992 9.02083 97.9085 9.39583 97.5231 9.78125C97.1481 10.1562 96.7887 10.5156 96.445 10.8594C96.1012 11.2031 95.7887 11.4896 95.5075 11.7188C95.2367 11.9375 95.0075 12.0781 94.82 12.1406C94.6325 12.1927 94.5075 12.125 94.445 11.9375C94.4346 11.9271 94.4919 11.7969 94.6169 11.5469C94.7523 11.2865 94.9137 10.9635 95.1012 10.5781C95.2992 10.1927 95.5127 9.77604 95.7419 9.32812C95.9815 8.88021 96.2054 8.46354 96.4137 8.07812C96.6221 7.68229 96.8044 7.34896 96.9606 7.07812C97.1169 6.80729 97.2158 6.66146 97.2575 6.64062C97.4762 6.78646 97.5856 6.94792 97.5856 7.125C97.596 7.29167 97.57 7.46875 97.5075 7.65625C97.445 7.83333 97.3721 8.01562 97.2887 8.20312C97.2158 8.39062 97.2054 8.57812 97.2575 8.76562C97.4242 8.65104 97.6533 8.49479 97.945 8.29688C98.2471 8.08854 98.57 7.875 98.9137 7.65625C99.2679 7.4375 99.6325 7.22396 100.007 7.01562C100.393 6.80729 100.752 6.64583 101.086 6.53125C101.419 6.40625 101.716 6.33854 101.976 6.32812C102.247 6.31771 102.445 6.39583 102.57 6.5625C102.695 6.72917 102.731 7.00521 102.679 7.39062C102.638 7.76562 102.476 8.28125 102.195 8.9375C102.164 9.01042 102.086 9.1875 101.961 9.46875C101.846 9.73958 101.716 10.0365 101.57 10.3594C101.435 10.6719 101.304 10.9688 101.179 11.25C101.065 11.5208 100.992 11.6927 100.961 11.7656C100.95 11.8073 100.935 11.8854 100.914 12C100.903 12.1042 100.888 12.224 100.867 12.3594C100.846 12.4844 100.815 12.6094 100.773 12.7344C100.731 12.849 100.679 12.9375 100.617 13C100.554 13.0625 100.481 13.0573 100.398 12.9844C100.315 12.901 100.268 12.849 100.257 12.8281ZM114.042 12.6406C113.647 12.3698 113.36 12.0365 113.183 11.6406C113.006 11.2344 112.876 10.8021 112.792 10.3438H112.621C111.777 11.0312 111.042 11.5469 110.417 11.8906C109.803 12.2344 109.282 12.4479 108.855 12.5312C108.428 12.6042 108.095 12.5677 107.855 12.4219C107.615 12.276 107.459 12.0677 107.386 11.7969C107.324 11.5156 107.339 11.1875 107.433 10.8125C107.527 10.4375 107.688 10.0625 107.917 9.6875C108.147 9.30208 108.444 8.9375 108.808 8.59375C109.173 8.25 109.589 7.96875 110.058 7.75C110.537 7.53125 111.063 7.39583 111.636 7.34375C112.22 7.28125 112.845 7.34375 113.511 7.53125L113.683 7.34375L115.792 3.10938C116.074 3.15104 116.24 3.27604 116.292 3.48438C116.345 3.69271 116.339 3.92188 116.277 4.17188C116.225 4.42188 116.141 4.66667 116.027 4.90625C115.923 5.13542 115.845 5.30208 115.792 5.40625C115.761 5.46875 115.699 5.58854 115.605 5.76562C115.522 5.94271 115.417 6.15625 115.292 6.40625C115.178 6.64583 115.053 6.90104 114.917 7.17188C114.782 7.44271 114.652 7.70312 114.527 7.95312C114.412 8.19271 114.308 8.40625 114.214 8.59375C114.121 8.77083 114.063 8.88542 114.042 8.9375C113.855 9.32292 113.766 9.73438 113.777 10.1719C113.798 10.599 113.824 11.0104 113.855 11.4062C113.897 11.5938 113.98 11.75 114.105 11.875C114.23 11.9896 114.36 12.099 114.496 12.2031C114.641 12.2969 114.782 12.3906 114.917 12.4844C115.063 12.5781 115.183 12.6927 115.277 12.8281C115.235 12.9635 115.152 13.0312 115.027 13.0312C114.902 13.0417 114.772 13.0208 114.636 12.9688C114.501 12.9167 114.376 12.8542 114.261 12.7812C114.147 12.7083 114.074 12.6615 114.042 12.6406ZM108.214 11.9375C108.256 12.1146 108.412 12.1667 108.683 12.0938C108.964 12.0208 109.292 11.8698 109.667 11.6406C110.042 11.401 110.438 11.1146 110.855 10.7812C111.282 10.4479 111.662 10.1146 111.996 9.78125C112.339 9.44792 112.605 9.14062 112.792 8.85938C112.99 8.57812 113.053 8.36979 112.98 8.23438C112.657 8.05729 112.298 7.96875 111.902 7.96875C111.506 7.96875 111.11 8.04167 110.714 8.1875C110.329 8.32292 109.954 8.52083 109.589 8.78125C109.235 9.03125 108.933 9.32292 108.683 9.65625C108.444 9.98958 108.272 10.3542 108.167 10.75C108.074 11.1354 108.089 11.5312 108.214 11.9375ZM121.218 12.8281C120.781 12.651 120.505 12.3854 120.39 12.0312C120.286 11.6771 120.291 11.2865 120.406 10.8594C120.52 10.4219 120.718 9.97396 120.999 9.51562C121.281 9.04688 121.593 8.61979 121.937 8.23438C122.281 7.84896 122.624 7.52604 122.968 7.26562C123.322 6.99479 123.624 6.84375 123.874 6.8125C124.52 6.72917 125.025 6.77604 125.39 6.95312C125.765 7.11979 126.02 7.36458 126.156 7.6875C126.291 8.01042 126.327 8.39062 126.265 8.82812C126.202 9.25521 126.062 9.6875 125.843 10.125C125.635 10.5625 125.359 10.9844 125.015 11.3906C124.682 11.7969 124.307 12.1406 123.89 12.4219C123.484 12.6927 123.051 12.875 122.593 12.9688C122.135 13.0521 121.676 13.0052 121.218 12.8281ZM121.046 11.9375C121.13 12.2708 121.307 12.4583 121.577 12.5C121.848 12.5312 122.161 12.4635 122.515 12.2969C122.88 12.1198 123.26 11.8698 123.656 11.5469C124.051 11.2135 124.411 10.8542 124.734 10.4688C125.067 10.0833 125.338 9.69792 125.546 9.3125C125.765 8.91667 125.869 8.57292 125.859 8.28125C125.859 7.98958 125.718 7.77083 125.437 7.625C125.166 7.46875 124.708 7.4375 124.062 7.53125C123.916 7.66667 123.729 7.83333 123.499 8.03125C123.27 8.21875 123.031 8.42708 122.781 8.65625C122.541 8.88542 122.301 9.13542 122.062 9.40625C121.822 9.66667 121.614 9.9375 121.437 10.2188C121.26 10.5 121.13 10.7865 121.046 11.0781C120.973 11.3698 120.973 11.6562 121.046 11.9375ZM136.956 12.8281C136.925 12.4844 136.951 12.1458 137.034 11.8125C137.128 11.4688 137.248 11.1354 137.394 10.8125C137.55 10.4792 137.711 10.151 137.878 9.82812C138.055 9.49479 138.206 9.17188 138.331 8.85938C138.456 8.53646 138.545 8.22396 138.597 7.92188C138.649 7.60938 138.628 7.30208 138.534 7C138.274 6.90625 137.972 6.92708 137.628 7.0625C137.295 7.19792 136.941 7.40625 136.566 7.6875C136.191 7.95833 135.8 8.28125 135.394 8.65625C134.998 9.02083 134.607 9.39583 134.222 9.78125C133.847 10.1562 133.488 10.5156 133.144 10.8594C132.8 11.2031 132.488 11.4896 132.206 11.7188C131.935 11.9375 131.706 12.0781 131.519 12.1406C131.331 12.1927 131.206 12.125 131.144 11.9375C131.133 11.9271 131.191 11.7969 131.316 11.5469C131.451 11.2865 131.613 10.9635 131.8 10.5781C131.998 10.1927 132.211 9.77604 132.441 9.32812C132.68 8.88021 132.904 8.46354 133.113 8.07812C133.321 7.68229 133.503 7.34896 133.659 7.07812C133.816 6.80729 133.915 6.66146 133.956 6.64062C134.175 6.78646 134.284 6.94792 134.284 7.125C134.295 7.29167 134.269 7.46875 134.206 7.65625C134.144 7.83333 134.071 8.01562 133.988 8.20312C133.915 8.39062 133.904 8.57812 133.956 8.76562C134.123 8.65104 134.352 8.49479 134.644 8.29688C134.946 8.08854 135.269 7.875 135.613 7.65625C135.967 7.4375 136.331 7.22396 136.706 7.01562C137.092 6.80729 137.451 6.64583 137.784 6.53125C138.118 6.40625 138.415 6.33854 138.675 6.32812C138.946 6.31771 139.144 6.39583 139.269 6.5625C139.394 6.72917 139.43 7.00521 139.378 7.39062C139.336 7.76562 139.175 8.28125 138.894 8.9375C138.863 9.01042 138.784 9.1875 138.659 9.46875C138.545 9.73958 138.415 10.0365 138.269 10.3594C138.133 10.6719 138.003 10.9688 137.878 11.25C137.764 11.5208 137.691 11.6927 137.659 11.7656C137.649 11.8073 137.633 11.8854 137.613 12C137.602 12.1042 137.586 12.224 137.566 12.3594C137.545 12.4844 137.514 12.6094 137.472 12.7344C137.43 12.849 137.378 12.9375 137.316 13C137.253 13.0625 137.18 13.0573 137.097 12.9844C137.014 12.901 136.967 12.849 136.956 12.8281Z" fill="white"/>
</svg>
