<svg width="273" height="31" viewBox="0 0 273 31" fill="none" xmlns="http://www.w3.org/2000/svg">
<path d="M8.7533 8.248L2.5973 8.536C2.2133 8.536 1.8173 8.284 1.4093 7.78C1.0013 7.276 0.797297 6.784 0.797297 6.304C0.797297 5.872 1.4813 5.596 2.8493 5.476C4.2413 5.356 7.2773 5.296 11.9573 5.296C14.3813 5.296 16.3733 5.56 17.9333 6.088C19.5173 6.616 20.3093 7.204 20.3093 7.852C20.3093 8.308 19.9133 8.536 19.1213 8.536C18.3293 8.536 17.2253 8.488 15.8093 8.392C14.3933 8.296 13.0373 8.236 11.7413 8.212C11.8133 8.452 11.8493 8.716 11.8493 9.004C11.8493 9.892 10.9133 14.02 9.0413 21.388C8.8493 22.156 8.5613 23.356 8.1773 24.988C7.7933 26.62 7.5053 27.76 7.3133 28.408C6.9773 29.68 6.6773 30.316 6.4133 30.316C6.0533 30.316 5.6453 30.052 5.1893 29.524C4.7573 28.972 4.5413 28.42 4.5413 27.868C4.5413 27.316 5.1893 24.484 6.4853 19.372C7.7813 14.236 8.5373 10.528 8.7533 8.248ZM23.1589 3.928C23.1589 2.992 23.4469 2.524 24.0229 2.524C24.4789 2.524 24.9589 2.884 25.4629 3.604C25.9909 4.324 26.2549 5.02 26.2549 5.692C26.2549 7.252 25.8589 9.916 25.0669 13.684C24.2989 17.428 23.2909 21.172 22.0429 24.916C24.4429 20.572 26.4469 17.44 28.0549 15.52C29.6869 13.576 31.0789 12.604 32.2309 12.604C32.8549 12.604 33.5749 13.144 34.3909 14.224C35.2309 15.304 35.6509 16.384 35.6509 17.464C35.6509 18.544 35.3509 20.164 34.7509 22.324C33.2629 27.748 31.8589 30.46 30.5389 30.46C30.0109 30.46 29.7469 30.1 29.7469 29.38C29.7469 28.66 30.0349 27.448 30.6109 25.744C31.8829 22.024 32.5189 19.516 32.5189 18.22C32.5189 17.788 32.4109 17.428 32.1949 17.14C31.9789 16.852 31.7149 16.708 31.4029 16.708C31.0909 16.708 30.7069 16.876 30.2509 17.212C29.7949 17.548 29.2429 18.136 28.5949 18.976C27.7789 20.056 26.9269 21.268 26.0389 22.612C25.1749 23.956 24.6469 24.772 24.4549 25.06C24.2869 25.324 23.9749 25.816 23.5189 26.536C23.0869 27.256 22.7629 27.796 22.5469 28.156C22.3309 28.492 22.0669 28.864 21.7549 29.272C21.2029 30.064 20.7829 30.46 20.4949 30.46C20.2069 30.46 19.8229 30.196 19.3429 29.668C18.8629 29.116 18.6229 28.66 18.6229 28.3C18.6229 27.916 18.7549 27.208 19.0189 26.176C20.2189 21.568 20.9749 18.412 21.2869 16.708C22.5349 10.468 23.1589 6.208 23.1589 3.928ZM52.5757 18.58C52.5757 19.852 51.8797 20.896 50.4877 21.712C49.1197 22.504 47.5597 22.9 45.8077 22.9C44.0797 22.9 42.5077 22.708 41.0917 22.324C40.7557 23.38 40.5877 24.328 40.5877 25.168C40.5877 25.984 40.8397 26.62 41.3437 27.076C41.8717 27.532 42.7237 27.76 43.8997 27.76C45.0997 27.76 46.3237 27.556 47.5717 27.148C48.8437 26.716 49.5397 26.5 49.6597 26.5C50.2837 26.5 50.5957 26.74 50.5957 27.22C50.5957 27.868 49.8637 28.576 48.3997 29.344C46.9357 30.088 45.5077 30.46 44.1157 30.46C42.2437 30.46 40.7197 29.908 39.5437 28.804C38.3677 27.676 37.7797 26.26 37.7797 24.556C37.7797 22.852 38.2357 21.076 39.1477 19.228C40.0597 17.356 41.2357 15.784 42.6757 14.512C44.1157 13.24 45.5437 12.604 46.9597 12.604C48.3757 12.604 49.6597 13.276 50.8117 14.62C51.9877 15.964 52.5757 17.284 52.5757 18.58ZM47.1397 15.448C46.2517 15.448 45.3277 15.916 44.3677 16.852C43.4077 17.764 42.5917 18.904 41.9197 20.272C42.8797 20.488 43.9717 20.596 45.1957 20.596C46.4197 20.596 47.4877 20.404 48.3997 20.02C49.3117 19.612 49.7677 19.084 49.7677 18.436C49.7677 17.788 49.4677 17.128 48.8677 16.456C48.2917 15.784 47.7157 15.448 47.1397 15.448ZM87.984 6.52C88.032 5.488 88.272 4.972 88.704 4.972C89.16 4.972 89.652 5.248 90.18 5.8C90.708 6.352 90.972 6.844 90.972 7.276C90.972 9.244 90.66 12.04 90.036 15.664C89.436 19.288 88.62 22.648 87.588 25.744C86.58 28.84 85.62 30.388 84.708 30.388C84.396 30.388 84.036 30.232 83.628 29.92C83.244 29.608 82.944 29.224 82.728 28.768C82.008 27.088 79.884 21.76 76.356 12.784C75.636 15.568 74.832 18.724 73.944 22.252C73.08 25.756 72.504 27.988 72.216 28.948C71.928 29.908 71.676 30.388 71.46 30.388C71.148 30.388 70.764 30.124 70.308 29.596C69.876 29.044 69.66 28.48 69.66 27.904C69.66 27.328 70.44 23.956 72 17.788C73.56 11.596 74.364 7.732 74.412 6.196C74.412 5.428 74.616 5.044 75.024 5.044C75.288 5.044 75.648 5.272 76.104 5.728C76.584 6.16 76.932 6.64 77.148 7.168C81.012 17.2 83.46 23.344 84.492 25.6C86.052 21.472 87.096 16.54 87.624 10.804C87.864 8.164 87.984 6.736 87.984 6.52ZM97.8392 7.492C97.8392 7.012 98.0312 6.556 98.4152 6.124C98.7992 5.692 99.1832 5.476 99.5672 5.476C99.9752 5.476 100.455 5.968 101.007 6.952C101.559 7.912 101.835 8.716 101.835 9.364C101.835 9.604 101.727 9.82 101.511 10.012C101.295 10.204 101.067 10.3 100.827 10.3C100.251 10.3 99.6032 9.952 98.8832 9.256C98.1872 8.56 97.8392 7.972 97.8392 7.492ZM97.6592 12.604C98.1152 12.604 98.5472 12.88 98.9552 13.432C99.3632 13.984 99.5672 14.524 99.5672 15.052C99.5672 15.58 99.2192 17.164 98.5232 19.804C97.8272 22.42 96.9512 25.36 95.8952 28.624C95.4872 29.824 94.9712 30.424 94.3472 30.424C94.0112 30.424 93.7232 30.292 93.4832 30.028C93.2432 29.74 93.1232 29.428 93.1232 29.092C93.1232 28.732 93.2072 28.18 93.3752 27.436C93.5672 26.668 93.8312 25.66 94.1672 24.412C94.5272 23.14 94.8032 22.108 94.9952 21.316C95.2112 20.524 95.4272 19.636 95.6432 18.652C95.8592 17.644 96.0272 16.84 96.1472 16.24C96.2912 15.616 96.4472 14.992 96.6152 14.368C96.9512 13.192 97.2992 12.604 97.6592 12.604ZM105.337 24.196C107.641 20.284 109.513 17.38 110.953 15.484C112.417 13.564 113.605 12.604 114.517 12.604C115.453 12.604 116.329 13.096 117.145 14.08C117.985 15.064 118.405 16.108 118.405 17.212C118.405 18.94 118.009 21.052 117.217 23.548C115.777 28.156 114.481 30.46 113.329 30.46C112.801 30.46 112.537 30.1 112.537 29.38C112.537 28.876 112.789 27.856 113.293 26.32C113.821 24.76 114.301 23.236 114.733 21.748C115.189 20.236 115.417 19.108 115.417 18.364C115.417 17.596 115.297 17.032 115.057 16.672C114.841 16.312 114.613 16.132 114.373 16.132C114.157 16.132 113.929 16.204 113.689 16.348C113.449 16.492 113.173 16.732 112.861 17.068C112.573 17.404 112.297 17.74 112.033 18.076C111.769 18.388 111.433 18.844 111.025 19.444C110.641 20.044 110.317 20.56 110.053 20.992C109.789 21.4 109.405 22 108.901 22.792C108.397 23.584 108.013 24.184 107.749 24.592C107.485 25 107.137 25.552 106.705 26.248C106.273 26.944 105.925 27.484 105.661 27.868C105.421 28.252 105.145 28.672 104.833 29.128C104.233 30.016 103.753 30.46 103.393 30.46C103.057 30.46 102.661 30.196 102.205 29.668C101.749 29.116 101.521 28.636 101.521 28.228C101.521 28.108 101.605 27.784 101.773 27.256C102.229 25.864 102.733 24.148 103.285 22.108C103.837 20.044 104.137 17.704 104.185 15.088C104.257 13.336 104.509 12.46 104.941 12.46C105.469 12.46 105.997 12.736 106.525 13.288C107.053 13.84 107.317 14.452 107.317 15.124C107.317 15.772 107.113 17.044 106.705 18.94C106.321 20.812 105.865 22.564 105.337 24.196ZM130.581 12.604C131.661 12.604 132.657 13.156 133.569 14.26C134.481 15.34 134.937 16.324 134.937 17.212C134.937 18.076 134.637 18.964 134.037 19.876C134.325 20.236 134.469 20.548 134.469 20.812C134.469 21.484 134.313 22.636 134.001 24.268C133.713 25.9 133.533 26.968 133.461 27.472C133.413 27.976 133.365 28.384 133.317 28.696C133.269 28.984 133.209 29.272 133.137 29.56C133.041 30.16 132.825 30.46 132.489 30.46C132.057 30.46 131.697 30.088 131.409 29.344C131.145 28.576 130.989 27.592 130.941 26.392C128.805 29.104 126.825 30.46 125.001 30.46C123.897 30.46 122.805 29.992 121.725 29.056C120.669 28.096 120.141 27.112 120.141 26.104C120.141 24.664 120.669 22.888 121.725 20.776C122.781 18.64 124.149 16.744 125.829 15.088C127.509 13.432 129.093 12.604 130.581 12.604ZM132.237 18.94C132.237 16.708 131.793 15.592 130.905 15.592C129.969 15.592 128.877 16.264 127.629 17.608C126.381 18.928 125.325 20.428 124.461 22.108C123.597 23.788 123.165 25.12 123.165 26.104C123.165 26.512 123.333 26.848 123.669 27.112C124.005 27.352 124.401 27.472 124.857 27.472C125.985 27.472 127.257 26.716 128.673 25.204C130.089 23.668 131.073 21.808 131.625 19.624C131.697 19.264 131.901 19.048 132.237 18.976V18.94ZM148.176 12.604C148.992 12.604 149.76 13.06 150.48 13.972C151.2 14.86 151.56 15.64 151.56 16.312C151.56 16.72 151.368 16.924 150.984 16.924C150.72 16.924 150.312 16.72 149.76 16.312C149.208 15.88 148.644 15.664 148.068 15.664C147.492 15.664 146.58 16 145.332 16.672C144.108 17.344 143.496 18.052 143.496 18.796C143.496 19.348 144.6 20.296 146.808 21.64C147.648 22.168 148.404 22.852 149.076 23.692C149.772 24.508 150.12 25.396 150.12 26.356C150.12 27.292 149.46 28.216 148.14 29.128C146.844 30.016 145.32 30.46 143.568 30.46C141.84 30.46 140.304 30.04 138.96 29.2C137.64 28.36 136.98 27.568 136.98 26.824C136.98 26.512 137.052 26.272 137.196 26.104C137.364 25.912 137.568 25.816 137.808 25.816C138.048 25.816 138.384 25.972 138.816 26.284C140.112 27.22 141.456 27.688 142.848 27.688C144.264 27.688 145.284 27.532 145.908 27.22C146.532 26.884 146.844 26.452 146.844 25.924C146.844 25.372 146.496 24.796 145.8 24.196C145.104 23.572 144.336 23.02 143.496 22.54C142.68 22.06 141.924 21.472 141.228 20.776C140.532 20.08 140.184 19.372 140.184 18.652C140.184 17.38 141.18 16.06 143.172 14.692C145.188 13.3 146.856 12.604 148.176 12.604ZM160.408 4.216C160.408 5.728 159.712 7.252 158.32 8.788C156.928 10.324 155.788 11.092 154.9 11.092C154.252 11.092 153.928 10.828 153.928 10.3C153.928 10.012 154.192 9.604 154.72 9.076C155.272 8.548 155.824 7.936 156.376 7.24C156.928 6.544 157.204 5.896 157.204 5.296C157.204 4.696 157.096 4.252 156.88 3.964C156.664 3.676 156.436 3.472 156.196 3.352C155.5 3.064 155.152 2.692 155.152 2.236C155.152 1.78 155.332 1.396 155.692 1.084C156.076 0.747999 156.52 0.579999 157.024 0.579999C157.96 0.579999 158.752 0.915999 159.4 1.588C160.072 2.236 160.408 3.112 160.408 4.216ZM173.805 12.604C174.621 12.604 175.389 13.06 176.109 13.972C176.829 14.86 177.189 15.64 177.189 16.312C177.189 16.72 176.997 16.924 176.613 16.924C176.349 16.924 175.941 16.72 175.389 16.312C174.837 15.88 174.273 15.664 173.697 15.664C173.121 15.664 172.209 16 170.961 16.672C169.737 17.344 169.125 18.052 169.125 18.796C169.125 19.348 170.229 20.296 172.437 21.64C173.277 22.168 174.033 22.852 174.705 23.692C175.401 24.508 175.749 25.396 175.749 26.356C175.749 27.292 175.089 28.216 173.769 29.128C172.473 30.016 170.949 30.46 169.197 30.46C167.469 30.46 165.933 30.04 164.589 29.2C163.269 28.36 162.609 27.568 162.609 26.824C162.609 26.512 162.681 26.272 162.825 26.104C162.993 25.912 163.197 25.816 163.437 25.816C163.677 25.816 164.013 25.972 164.445 26.284C165.741 27.22 167.085 27.688 168.477 27.688C169.893 27.688 170.913 27.532 171.537 27.22C172.161 26.884 172.473 26.452 172.473 25.924C172.473 25.372 172.125 24.796 171.429 24.196C170.733 23.572 169.965 23.02 169.125 22.54C168.309 22.06 167.553 21.472 166.857 20.776C166.161 20.08 165.813 19.372 165.813 18.652C165.813 17.38 166.809 16.06 168.801 14.692C170.817 13.3 172.485 12.604 173.805 12.604ZM195.77 30.424C195.41 30.424 195.002 30.16 194.546 29.632C194.09 29.104 193.862 28.576 193.862 28.048C193.862 27.496 194.522 24.892 195.842 20.236C197.162 15.58 197.918 12.04 198.11 9.616C197.798 9.424 197.522 9.124 197.282 8.716C197.042 8.308 196.922 7.948 196.922 7.636C196.922 7.084 197.738 6.52 199.37 5.944C201.002 5.344 202.802 5.044 204.77 5.044C206.762 5.044 208.478 5.524 209.918 6.484C211.382 7.42 212.114 8.752 212.114 10.48C212.114 11.656 211.778 12.76 211.106 13.792C210.458 14.8 209.654 15.628 208.694 16.276C207.758 16.924 206.822 17.5 205.886 18.004C204.95 18.508 204.146 18.928 203.474 19.264C202.826 19.576 202.502 19.804 202.502 19.948C202.502 20.476 202.91 21.16 203.726 22C204.566 22.84 205.154 23.416 205.49 23.728C205.826 24.04 206.27 24.46 206.822 24.988C207.374 25.492 207.89 25.948 208.37 26.356C208.874 26.764 209.27 27.1 209.558 27.364C209.87 27.628 210.182 27.904 210.494 28.192C211.094 28.744 211.394 29.188 211.394 29.524C211.394 30.1 210.998 30.388 210.206 30.388C208.766 30.388 206.714 29.14 204.05 26.644C201.386 24.124 199.754 21.988 199.154 20.236C198.026 23.98 197.378 26.152 197.21 26.752C197.042 27.328 196.85 27.928 196.634 28.552C196.25 29.8 195.962 30.424 195.77 30.424ZM201.206 10.588C201.206 12.148 200.702 14.728 199.694 18.328C200.102 18.016 200.882 17.56 202.034 16.96C203.186 16.336 204.218 15.772 205.13 15.268C206.066 14.74 206.918 14.044 207.686 13.18C208.454 12.316 208.838 11.416 208.838 10.48C208.838 8.992 207.542 8.248 204.95 8.248C203.774 8.248 202.406 8.548 200.846 9.148C201.086 9.676 201.206 10.156 201.206 10.588ZM225.181 18.724C225.181 17.908 225.049 17.14 224.785 16.42C224.521 15.676 224.137 15.136 223.633 14.8C221.977 15.256 220.549 16.54 219.349 18.652C218.173 20.74 217.585 22.708 217.585 24.556C217.585 26.404 218.041 27.556 218.953 28.012C220.681 27.676 222.145 26.5 223.345 24.484C224.569 22.444 225.181 20.524 225.181 18.724ZM215.713 19.048C216.553 17.176 217.645 15.64 218.989 14.44C220.357 13.216 221.749 12.604 223.165 12.604C224.605 12.604 225.805 13.216 226.765 14.44C227.725 15.64 228.205 17.116 228.205 18.868C228.205 20.596 227.785 22.372 226.945 24.196C226.105 25.996 224.941 27.496 223.453 28.696C221.989 29.872 220.429 30.46 218.773 30.46C217.549 30.46 216.529 29.896 215.713 28.768C214.897 27.64 214.489 26.212 214.489 24.484C214.489 22.732 214.897 20.92 215.713 19.048ZM241.494 18.724C241.494 17.908 241.362 17.14 241.098 16.42C240.834 15.676 240.45 15.136 239.946 14.8C238.29 15.256 236.862 16.54 235.662 18.652C234.486 20.74 233.898 22.708 233.898 24.556C233.898 26.404 234.354 27.556 235.266 28.012C236.994 27.676 238.458 26.5 239.658 24.484C240.882 22.444 241.494 20.524 241.494 18.724ZM232.026 19.048C232.866 17.176 233.958 15.64 235.302 14.44C236.67 13.216 238.062 12.604 239.478 12.604C240.918 12.604 242.118 13.216 243.078 14.44C244.038 15.64 244.518 17.116 244.518 18.868C244.518 20.596 244.098 22.372 243.258 24.196C242.418 25.996 241.254 27.496 239.766 28.696C238.302 29.872 236.742 30.46 235.086 30.46C233.862 30.46 232.842 29.896 232.026 28.768C231.21 27.64 230.802 26.212 230.802 24.484C230.802 22.732 231.21 20.92 232.026 19.048ZM270.226 12.604C270.946 12.604 271.582 13.108 272.134 14.116C272.71 15.1 272.998 16.228 272.998 17.5C272.998 18.748 272.77 20.38 272.314 22.396C271.882 24.412 271.294 26.26 270.55 27.94C269.806 29.62 269.074 30.46 268.354 30.46C267.85 30.46 267.598 30.136 267.598 29.488C267.598 28.816 268.006 27.196 268.822 24.628C269.662 22.036 270.082 19.984 270.082 18.472C270.082 16.936 269.842 16.168 269.362 16.168C268.762 16.168 268.066 16.696 267.274 17.752C266.506 18.808 265.678 20.08 264.79 21.568C263.902 23.056 263.422 23.86 263.35 23.98C263.278 24.076 263.182 24.22 263.062 24.412C262.966 24.604 262.846 24.808 262.702 25.024C262.582 25.24 262.246 25.888 261.694 26.968C261.166 28.048 260.698 28.9 260.29 29.524C259.882 30.124 259.522 30.424 259.21 30.424C258.922 30.424 258.598 30.232 258.238 29.848C257.878 29.464 257.698 29.104 257.698 28.768C257.698 28.432 257.914 27.736 258.346 26.68C259.594 23.56 260.218 20.656 260.218 17.968C260.218 17.464 260.11 17.044 259.894 16.708C259.678 16.348 259.438 16.168 259.174 16.168C258.91 16.168 258.634 16.288 258.346 16.528C258.058 16.744 257.698 17.152 257.266 17.752C256.834 18.328 256.45 18.88 256.114 19.408C255.778 19.936 255.262 20.764 254.566 21.892C253.894 22.996 253.378 23.824 253.018 24.376C252.682 24.904 252.286 25.528 251.83 26.248C251.374 26.944 251.014 27.484 250.75 27.868C250.51 28.252 250.234 28.672 249.922 29.128C249.274 30.016 248.794 30.46 248.482 30.46C248.194 30.46 247.81 30.196 247.33 29.668C246.85 29.116 246.61 28.708 246.61 28.444C246.61 28.156 246.658 27.808 246.754 27.4C246.85 26.992 246.946 26.596 247.042 26.212C247.162 25.828 247.33 25.264 247.546 24.52C247.786 23.752 248.05 22.864 248.338 21.856C248.65 20.824 248.878 19.42 249.022 17.644C249.19 15.844 249.31 14.536 249.382 13.72C249.454 12.88 249.658 12.46 249.994 12.46C250.522 12.46 251.038 12.736 251.542 13.288C252.07 13.84 252.334 14.392 252.334 14.944C252.334 17.056 251.542 20.536 249.958 25.384C252.646 20.344 254.338 17.356 255.034 16.42C255.73 15.484 256.33 14.728 256.834 14.152C257.77 13.12 258.718 12.604 259.678 12.604C260.254 12.604 260.938 13.108 261.73 14.116C262.546 15.1 262.954 16.096 262.954 17.104C262.954 18.112 262.81 19.36 262.522 20.848C265.354 15.352 267.922 12.604 270.226 12.604Z" fill="white"/>
</svg>
